<svg xmlns="http://www.w3.org/2000/svg" viewBox="0 0 30 20">
  <rect width="30" height="20" fill="#DE2910" />
  <polygon fill="#FFDE00" points="8.00,2.00 8.94,4.71 11.80,4.76 9.52,6.49 10.35,9.24 8.00,7.60 5.65,9.24 6.48,6.49 4.20,4.76 7.06,4.71" />
  <polygon fill="#FFDE00" points="15.00,1.50 15.35,2.51 16.43,2.54 15.57,3.19 15.88,4.21 15.00,3.60 14.12,4.21 14.43,3.19 13.57,2.54 14.65,2.51" />
  <polygon fill="#FFDE00" points="17.00,4.50 17.35,5.51 18.43,5.54 17.57,6.19 17.88,7.21 17.00,6.60 16.12,7.21 16.43,6.19 15.57,5.54 16.65,5.51" />
  <polygon fill="#FFDE00" points="17.00,8.50 17.35,9.51 18.43,9.54 17.57,10.19 17.88,11.21 17.00,10.60 16.12,11.21 16.43,10.19 15.57,9.54 16.65,9.51" />
  <polygon fill="#FFDE00" points="15.00,11.50 15.35,12.51 16.43,12.54 15.57,13.19 15.88,14.21 15.00,13.60 14.12,14.21 14.43,13.19 13.57,12.54 14.65,12.51" />
</svg>
